# xmcd
#
# Track frame offsets:
#	150
#	16685
#	31242
#	53412
#	65837
#	79170
#	91585
#	108282
#	127787
#	145737
#	165212
#	182437
#	199552
#	220937
#	237075
#
# Disc length: 3418 seconds
#
# Revision: 1
# Processed by: cddbd v1.5.1PL0 Copyright (c) Steve Scherf et al.
# Submitted via: CDex 1.50Beta5
#
DISCID=aa0d580f
DTITLE=THE MODS - THE LEGEND
DYEAR=1900
DGENRE=Rock
TTITLE0=崩れ落ちる前に
TTITLE1=不良少年の詩
TTITLE2=TWO PUNKS
TTITLE3=ゴキゲンRADIO
TTITLE4=LET'S GO GARAGE
TTITLE5=GANG ROCKER
TTITLE6=激しい雨が
TTITLE7=バラッドをお前に
TTITLE8=夜のハイウェイ
TTITLE9=BABY BLUE
TTITLE10=BREAKIN' MY HEART
TTITLE11=ジャマをするな
TTITLE12=ACE BOON
TTITLE13=HEY!! TRAVIS
TTITLE14=NAPALM ROCk
EXTD=
EXTT0=
EXTT1=
EXTT2=
EXTT3=
EXTT4=
EXTT5=
EXTT6=
EXTT7=
EXTT8=
EXTT9=
EXTT10=
EXTT11=
EXTT12=
EXTT13=
EXTT14=
PLAYORDER=
